:SAMPLES-PER-SECOND 30
:FULLY-SPECIFIED
:DEGREES
245
root  43.5128 38.5461 -0.259101 -52.19 -84.9023 47.7191
RightUpLeg  -11.0243 -4.3638 -11.7647
RightLeg  43.6343 2.5375 2.29355
RightFoot  -7.63378 -0.407111 10.9332
RightToes  -2.32831e-009 0 -3.6325e-017
Spine  7.0409 2.47439 1.08281
Spine1  7.30207 4.115 -7.7552
HEad  6.42492 28.4183 -8.33546
LeftShoulder1  -0.719382 5.49227 -30.0141
LeftArm  -10.2562 12.3142 -33.9508
LeftForeArm  27.9488 -10.6013 -5.03426
LeftHand  -0.129203 9.48188 -2.06721
RightShoulder  -0.794731 -5.91607 26.322
RightArm  6.67444 -0.721212 41.5371
RightForeArm  11.2333 20.7611 3.96707
RightHand  -0.140864 9.57157 -1.4857
LeftUpLeg  -9.28366 2.86388 -7.90586
LeftLeg  15.9736 -5.68444 -2.54209
LeftFoot  -3.07515 -0.443954 6.41266
LeftToes  8.91272e-011 -1.70619e-011 7.36378e-012
246
root  44.6646 38.4202 -0.418282 -56.8855 -84.6011 52.2604
RightUpLeg  -7.1537 -3.55363 -12.2178
RightLeg  46.3026 2.91856 2.95922
RightFoot  -8.30494 -0.349242 11.0147
RightToes  -2.32831e-009 0 -3.6325e-017
Spine  7.39405 3.00396 1.47206
Spine1  6.85848 4.91517 -8.99031
HEad  7.40549 29.5442 -7.8643
LeftShoulder1  -0.793183 5.72031 -29.6087
LeftArm  -9.92987 16.054 -29.84
LeftForeArm  26.3699 -10.6825 -4.82276
LeftHand  -0.14205 9.67046 -2.29063
RightShoulder  -0.739307 -5.75522 26.1853
RightArm  5.0554 0.351962 41.6514
RightForeArm  12.1546 23.8813 4.46309
RightHand  -0.226344 10.1424 -2.09928
LeftUpLeg  -10.7172 2.78312 -8.08718
LeftLeg  15.2529 -5.523 -2.79827
LeftFoot  -1.66153 -0.398257 4.81137
LeftToes  8.91272e-011 -1.70619e-011 7.36378e-012
247
root  45.8209 38.2498 -0.587698 -60.0383 -84.2277 55.0488
RightUpLeg  -2.70411 -2.38866 -12.1728
RightLeg  47.4372 4.13695 4.49484
RightFoot  -8.76683 -0.325786 11.7794
RightToes  -2.32831e-009 0 -3.6325e-017
Spine  7.27794 3.66869 1.79174
Spine1  7.25275 5.8102 -9.82035
HEad  8.57741 30.0571 -7.7715
LeftShoulder1  -0.802211 5.78737 -28.933
LeftArm  -8.95161 19.351 -26.8086
LeftForeArm  22.0205 -11.2334 -4.80641
LeftHand  -0.103126 9.76252 -1.24892
RightShoulder  -0.712568 -5.70676 25.6815
RightArm  3.82666 1.34591 42.0922
RightForeArm  12.8882 27.0923 5.1436
RightHand  -0.231326 9.75748 -2.1712
LeftUpLeg  -12.1618 2.8079 -8.28642
LeftLeg  15.0864 -5.09671 -2.83758
LeftFoot  -0.655986 -0.304959 3.29948
LeftToes  8.91272e-011 -1.70619e-011 7.36378e-012
248
root  47.0195 38.0365 -0.755341 -62.7844 -83.9263 57.6078
RightUpLeg  1.76167 -1.06403 -11.5402
RightLeg  47.019 6.79434 7.42021
RightFoot  -8.96543 -0.341922 13.4878
RightToes  -2.32831e-009 0 -3.6325e-017
Spine  7.22733 4.23937 2.60089
Spine1  7.21262 6.71294 -10.9835
HEad  9.60041 31.3877 -7.62637
LeftShoulder1  -0.779195 5.76523 -28.2551
LeftArm  -7.95752 22.5637 -24.2409
LeftForeArm  19.3396 -12.59 -4.62002
LeftHand  -0.122534 10.1972 -1.54408
RightShoulder  -0.706334 -5.67826 25.8122
RightArm  3.42514 2.61549 42.1138
RightForeArm  13.4652 30.0139 5.79647
RightHand  -0.240069 9.86719 -2.22891
LeftUpLeg  -13.8892 2.82095 -8.42337
LeftLeg  14.9692 -4.87541 -2.81761
LeftFoot  -0.283707 -0.0714234 0.750606
LeftToes  8.91272e-011 -1.70619e-011 7.36378e-012
249
root  48.2713 37.8087 -0.915904 -63.4687 -83.9747 58.204
RightUpLeg  5.9331 -0.031569 -10.1963
RightLeg  45.1227 10.2919 10.594
RightFoot  -9.82058 -0.267708 15.4286
RightToes  -2.32831e-009 0 -3.6325e-017
Spine  6.83426 4.75378 3.73089
Spine1  7.75884 7.52713 -11.6204
HEad  10.3072 32.6528 -7.57542
LeftShoulder1  -0.82894 5.92414 -28.0395
LeftArm  -6.89715 24.9733 -22.5028
LeftForeArm  16.8311 -14.2436 -4.48156
LeftHand  -0.0786217 10.7017 -0.42482
RightShoulder  -0.694761 -5.65869 25.5567
RightArm  3.51876 4.42395 42.442
RightForeArm  13.8831 32.685 6.43772
RightHand  -0.280633 9.34262 -2.60204
LeftUpLeg  -15.7174 2.61769 -8.22286
LeftLeg  14.6115 -4.43476 -2.57247
LeftFoot  0.308812 0.110788 -1.1026
LeftToes  8.91272e-011 -1.70619e-011 7.36378e-012
250
root  49.5714 37.6568 -1.04409 -66.2401 -84.1217 60.9213
RightUpLeg  9.73983 1.22988 -8.55165
RightLeg  41.1681 11.7341 10.5623
RightFoot  -11.7775 -0.0259094 15.6164
RightToes  -2.32831e-009 0 -3.6325e-017
Spine  6.98499 5.26135 5.41147
Spine1  7.57482 8.49949 -12.5973
HEad  10.7877 33.492 -7.51121
LeftShoulder1  -0.86774 6.06259 -27.6857
LeftArm  -6.83382 26.6267 -21.9356
LeftForeArm  15.7696 -15.5094 -4.2127
LeftHand  -0.0583863 10.958 0.0151666
RightShoulder  -0.761673 -5.83687 26.0098
RightArm  4.41304 6.68016 41.9408
RightForeArm  14.6513 35.1313 7.04105
RightHand  -0.235973 9.25867 -2.25852
LeftUpLeg  -16.7978 2.16767 -7.85714
LeftLeg  12.6418 -3.22296 -2.3109
LeftFoot  1.48718 0.276581 -2.53268
LeftToes  8.91272e-011 -1.70619e-011 7.36378e-012
251
root  50.9509 37.5299 -1.13131 -67.5254 -84.6501 62.5138
RightUpLeg  12.5616 1.91386 -6.62646
RightLeg  34.8474 10.6776 7.70027
RightFoot  -15.4874 0.265665 10.8036
RightToes  -2.32831e-009 0 -3.6325e-017
Spine  6.8833 5.42546 7.96974
Spine1  7.5818 9.26908 -13.7443
HEad  10.4034 34.463 -7.85311
LeftShoulder1  -0.923008 6.21809 -27.7808
LeftArm  -7.19907 27.7473 -22.1708
LeftForeArm  15.6797 -16.6182 -3.97546
LeftHand  -0.0758842 10.0225 -0.491809
RightShoulder  -0.714238 -5.69679 25.9028
RightArm  5.13197 9.17756 42.1411
RightForeArm  16.0211 37.1237 7.51279
RightHand  -0.103424 9.41269 -1.20371
LeftUpLeg  -17.7176 1.40948 -6.85753
LeftLeg  9.51512 -1.77059 -2.17694
LeftFoot  1.97979 0.595364 -5.20931
LeftToes  8.91272e-011 -1.70619e-011 7.36378e-012
252
root  52.4963 37.4115 -1.23025 -67.7371 -85.5589 62.4553
RightUpLeg  14.3916 2.18094 -4.65046
RightLeg  28.1265 7.93484 4.34587
RightFoot  -21.5441 0.393814 5.95053
RightToes  -2.32831e-009 0 -3.6325e-017
Spine  8.56225 5.25256 11.0597
Spine1  6.78812 9.76505 -15.0893
HEad  9.06367 35.2442 -9.06115
LeftShoulder1  -0.880326 6.09266 -27.7696
LeftArm  -8.20021 28.4239 -23.668
LeftForeArm  15.3142 -17.1957 -3.81008
LeftHand  -0.0589017 9.8864 -0.116505
RightShoulder  -0.637078 -5.46786 25.7302
RightArm  5.99881 12.0998 42.5778
RightForeArm  15.9928 37.7577 7.69955
RightHand  -0.242607 9.56055 -2.2814
LeftUpLeg  -18.1416 0.931276 -5.42536
LeftLeg  6.41535 0.439904 -2.01453
LeftFoot  1.46723 0.841914 -7.58469
LeftToes  8.91272e-011 -1.70619e-011 7.36378e-012
253
root  54.2282 37.3073 -1.33451 -52.4838 -87.0628 46.7599
RightUpLeg  13.6018 2.53815 -1.49309
RightLeg  25.3707 4.2906 1.97406
RightFoot  -24.0043 0.0359696 1.72009
RightToes  -2.32831e-009 0 -3.6325e-017
Spine  11.0923 4.55846 15.0498
Spine1  5.99566 9.81791 -16.2484
HEad  7.06767 36.0755 -11.3288
LeftShoulder1  -0.978093 6.32555 -28.4576
LeftArm  -9.74987 27.3494 -26.1432
LeftForeArm  15.4555 -16.483 -3.6885
LeftHand  -0.0440818 9.86529 0.231679
RightShoulder  -0.613427 -5.39358 25.7364
RightArm  7.39094 15.8927 42.8576
RightForeArm  15.9874 37.3217 7.57514
RightHand  -0.233211 9.44656 -2.21813
LeftUpLeg  -18.596 1.53001 -3.26189
LeftLeg  3.46557 0.882617 -2.08175
LeftFoot  -0.577751 0.763624 -7.94995
LeftToes  8.91272e-011 -1.70619e-011 7.36378e-012
254
root  55.9114 37.285 -1.34344 -6.96265 -87.0659 1.3891
RightUpLeg  11.1092 0.988592 0.626965
RightLeg  24.6603 3.23067 1.3927
RightFoot  -24.5074 -0.287619 -1.06388
RightToes  -2.32831e-009 0 -3.6325e-017
Spine  12.4119 3.48228 18.9908
Spine1  5.57853 9.33568 -16.9447
HEad  5.75104 36.9212 -12.9962
LeftShoulder1  -0.952201 6.22858 -28.7387
LeftArm  -10.6905 25.9756 -29.7569
LeftForeArm  16.438 -14.9241 -3.72218
LeftHand  -0.0675744 10.502 -0.179052
RightShoulder  -0.619693 -5.41679 25.6705
RightArm  9.30525 19.2564 43.1544
RightForeArm  14.3375 35.2729 7.09887
RightHand  -0.279217 9.78252 -2.53693
LeftUpLeg  -19.1439 1.68611 -1.7946
LeftLeg  -0.0240901 0.228871 -1.59306
LeftFoot  -4.49195 0.510117 -8.57047
LeftToes  8.91272e-011 -1.70619e-011 7.36378e-012
255
root  57.4588 37.2765 -1.38608 10.8878 -85.7558 -16.1068
RightUpLeg  7.62426 -0.290698 1.62885
RightLeg  25.8177 3.04049 1.37059
RightFoot  -24.3962 -0.436041 -2.37517
RightToes  -2.32831e-009 0 -3.6325e-017
Spine  12.6496 3.03302 19.6638
Spine1  5.77199 8.36945 -14.5692
HEad  4.29621 38.0334 -15.1133
LeftShoulder1  -1.00057 6.28753 -29.7544
LeftArm  -11.3601 24.5773 -33.5513
LeftForeArm  18.912 -13.5962 -3.83426
LeftHand  -0.150991 11.0112 -1.80607
RightShoulder  -0.59129 -5.35731 25.1616
RightArm  12.0004 22.1755 43.5907
RightForeArm  12.9205 32.4233 6.42907
RightHand  -0.286126 10.3087 -2.52634
LeftUpLeg  -19.0681 1.68678 -0.893014
LeftLeg  -3.80588 -0.955905 -1.21564
LeftFoot  -7.94473 0.456226 -13.1908
LeftToes  8.91272e-011 -1.70619e-011 7.36378e-012
